Coordinates
version=1
nRows=7
nColumns=46
inDegrees=yes

Units are S.I. units (second, meters, Newtons, ...)
Angles are in degrees.

endheader
time	pelvis_tilt	pelvis_list	pelvis_rotation	pelvis_tx	pelvis_ty	pelvis_tz	bb_angle	bb_tx	bb_ty	bb_tz	hip_flexion_r	hip_adduction_r	hip_rotation_r	knee_angle_r	knee_angle_r_beta	ankle_angle_r	subtalar_angle_r	mtp_angle_r	crank_angle_r	hip_flexion_l	hip_adduction_l	hip_rotation_l	knee_angle_l	knee_angle_l_beta	ankle_angle_l	subtalar_angle_l	mtp_angle_l	crank_angle_l	lumbar_extension	lumbar_bending	lumbar_rotation	arm_flex_r	arm_add_r	arm_rot_r	elbow_flex_r	pro_sup_r	wrist_flex_r	wrist_dev_r	arm_flex_l	arm_add_l	arm_rot_l	elbow_flex_l	pro_sup_l	wrist_flex_l	wrist_dev_l
      7.50000000	    -15.97579703	      4.04691437	      7.35576772	      0.14450465	      1.15400670	     -0.24108579	      0.00000000	      0.50000000	      0.00000000	      0.25000000	     52.55878232	    -11.77925063	     -4.62471925	     71.97624787	      1.25622251	     -0.80883492	    -10.81618959	      0.00000000	      0.00000000	     82.66930705	      1.11594929	      2.80973822	     88.47278855	      1.54414146	     11.03364200	      5.62009887	      0.00000000	      0.00000000	    -63.29088425	     -3.80796097	     -5.94959145	     89.56345380	    -20.98940966	     33.12105363	     56.76490162	     33.00030509	      0.00000000	      0.00000000	     89.66872067	     -7.31097322	     29.02482943	     59.84286486	     35.12282355	      0.00000000	      0.00000000
      7.50500000	    -15.86424095	      3.95433050	      7.35013528	      0.14430966	      1.15272869	     -0.24030993	      0.00000000	      0.50000000	      0.00000000	      0.25000000	     53.57035144	    -11.51022680	     -4.15351337	     74.35199423	      1.29768710	     -1.19343175	    -11.66001989	      0.00000000	      0.00000000	     80.83971825	      1.08015430	      2.85292108	     86.03935537	      1.50167004	     13.14445547	      5.82875072	      0.00000000	      0.00000000	    -63.21560615	     -3.73874788	     -5.43648376	     89.53464125	    -21.49696039	     33.21072669	     56.91880051	     33.05131071	      0.00000000	      0.00000000	     89.66719524	     -7.06882587	     29.46584076	     59.26799913	     34.92816355	      0.00000000	      0.00000000
      7.51000000	    -15.67906413	      3.70712000	      7.34180084	      0.14415603	      1.15124536	     -0.23972132	      0.00000000	      0.50000000	      0.00000000	      0.25000000	     54.51917841	    -11.11332941	     -3.77883389	     76.74112172	      1.33938525	     -1.54049841	    -12.40462623	      0.00000000	      0.00000000	     78.96793800	      1.02613456	      3.05777302	     83.58094325	      1.45876265	     14.99114177	      5.85903234	      0.00000000	      0.00000000	    -63.13510907	     -3.64276725	     -4.37603456	     89.50079680	    -23.30813650	     34.30482565	     57.80420635	     33.47890356	      0.00000000	      0.00000000	     89.67576149	     -5.98785961	     29.67925235	     58.37486482	     33.87447120	      0.00000000	      0.00000000
      7.51500000	    -15.49714891	      3.43230019	      7.35681367	      0.14409807	      1.14955361	     -0.23944293	      0.00000000	      0.50000000	      0.00000000	      0.25000000	     55.49365956	    -10.80540424	     -3.54125930	     79.14028418	      1.38125853	     -1.71512941	    -12.85760521	      0.00000000	      0.00000000	     77.08620248	      1.02317790	      3.26252003	     81.07254082	      1.41498277	     16.75028025	      5.61076289	      0.00000000	      0.00000000	    -63.02035402	     -3.30991904	     -3.85893529	     89.48302430	    -23.39159464	     34.29328937	     57.77028194	     33.49071625	      0.00000000	      0.00000000	     89.65261930	     -6.04290949	     29.76265947	     58.27177934	     33.79675196	      0.00000000	      0.00000000
      7.52000000	    -15.16032297	      3.34172539	      7.36517050	      0.14416369	      1.14817854	     -0.23918897	      0.00000000	      0.50000000	      0.00000000	      0.25000000	     56.37155908	    -10.64362875	     -3.19008366	     81.56933549	      1.42365347	     -2.04701560	    -13.38677954	      0.00000000	      0.00000000	     74.96111494	      1.07197977	      3.25044436	     78.45621225	      1.36931922	     18.13472806	      5.37851732	      0.00000000	      0.00000000	    -63.07753088	     -3.12183460	     -3.46018057	     89.44791043	    -23.55869918	     34.36288962	     57.72708824	     33.52784850	      0.00000000	      0.00000000	     89.63889909	     -5.99398405	     30.02260211	     57.93821950	     33.65678242	      0.00000000	      0.00000000
      7.52500000	    -14.88975806	      3.08429366	      7.34927259	      0.14429472	      1.14643701	     -0.23916499	      0.00000000	      0.50000000	      0.00000000	      0.25000000	     57.36237981	    -10.39181607	     -2.99891079	     83.98436854	      1.46580375	     -2.37310720	    -13.77538750	      0.00000000	      0.00000000	     72.95486878	      1.07087489	      3.40489598	     75.88093957	      1.32437223	     19.40247403	      4.85327759	      0.00000000	      0.00000000	    -62.99517971	     -2.78855761	     -2.90965741	     89.42262295	    -23.63787928	     34.45348039	     57.69823624	     33.56677341	      0.00000000	      0.00000000	     89.60731383	     -6.03353687	     30.18541340	     57.63547608	     33.55782719	      0.00000000	      0.00000000
      7.53000000	    -14.55938077	      2.91529684	      7.31433609	      0.14448864	      1.14478078	     -0.23936019	      0.00000000	      0.50000000	      0.00000000	      0.25000000	     58.38491552	    -10.27077203	     -2.80119604	     86.41550085	      1.50823501	     -2.89981884	    -14.14607248	      0.00000000	      0.00000000	     70.86095557	      1.10807695	      3.47683525	     73.27946700	      1.27896797	     20.38150124	      4.14874024	      0.00000000	      0.00000000	    -62.98396874	     -2.47389653	     -2.40077839	     89.39500764	    -23.69416841	     34.61771702	     57.67477626	     33.62380869	      0.00000000	      0.00000000	     89.58159315	     -6.04792187	     30.42311440	     57.19712058	     33.44857948	      0.00000000	      0.00000000
